<?xml version="1.0" encoding="UTF-8" standalone="no"?>
<!-- Created with Inkscape (http://www.inkscape.org/) -->

<svg
   version="1.1"
   id="svg1"
   width="192"
   height="192"
   viewBox="0 0 192 192"
   xmlns="http://www.w3.org/2000/svg"
   xmlns:svg="http://www.w3.org/2000/svg">
  <defs
     id="defs1" />
  <g
     id="g1">
    <path
       style="fill:#007681;fill-opacity:1;stroke-width:0.423638"
       d="m 129.86828,190.61583 c -11.77987,-4.17137 -25.30378,-21.8287 -31.755497,-41.46118 -0.721278,-2.19484 -1.538527,-4.06571 -1.816112,-4.15749 -0.637766,-0.21087 -1.327564,1.14401 -3.285646,6.45356 -7.556048,20.48906 -21.20405,36.84836 -32.726878,39.22837 -2.190935,0.45253 -3.105502,0.42954 -6.058766,-0.15229 -14.17633,-2.79289 -25.576181,-16.74078 -29.61588,-36.23548 -2.912407,-14.05464 -0.581018,-27.01799 6.960876,-38.70494 2.668053,-4.13442 4.528526,-6.35841 10.467886,-12.5132 2.74208,-2.84154 4.985596,-5.367484 4.985596,-5.613211 0,-0.245731 -0.718143,-0.446782 -1.595875,-0.446782 -3.586304,0 -15.424643,-0.924535 -19.53082,-1.525293 C 17.515509,94.26161 14.712586,92.468048 12.391669,86.845867 7.0193413,73.831967 1.308639,43.749105 0.5698852,24.571026 0.06271572,11.404886 2.9878319,3.4186808 8.9783057,1.614204 11.885978,0.73834223 19.461682,0.96281445 23.910384,2.0566495 39.155539,5.8050874 54.93623,18.139714 66.264739,35.161985 c 7.354667,11.051162 16.630623,29.621672 25.427618,50.906213 4.191347,10.141064 4.083773,9.995942 5.427986,7.322534 0.579821,-1.153165 2.400296,-5.432815 4.045497,-9.510334 9.11492,-22.590699 19.39367,-42.354359 27.98157,-53.802074 10.60053,-14.130568 24.51967,-24.2290198 38.61339,-28.0143331 5.15859,-1.38550237 13.82109,-1.43357166 16.31007,-0.090507 3.20309,1.7283994 5.07798,4.4832301 6.44154,9.4647521 0.92768,3.389083 1.02366,16.65181 0.17322,23.935568 -3.24744,27.813359 -9.35053,51.940895 -14.33383,56.666352 -2.56007,2.427609 -8.90872,3.785738 -21.17787,4.530456 -4.01026,0.243415 -7.96599,0.442575 -8.7905,0.442575 -0.82451,0 -1.49911,0.152828 -1.49911,0.339619 0,0.186795 2.24339,2.712734 4.98532,5.613204 2.74192,2.90048 5.76065,6.22678 6.70828,7.39179 9.61961,11.82613 13.56736,25.77695 11.38732,40.24121 -3.02083,20.04277 -12.94841,34.38246 -27.20575,39.29675 -4.86525,1.67698 -7.666,1.86215 -10.89121,0.72007 z"
       id="path2" />
  </g>
</svg>
