<?xml version="1.0" encoding="UTF-8" standalone="no"?>
<svg
   enable-background="new 0 0 648 504"
   version="1.1"
   viewBox="0 0 144.59801 144.598"
   xml:space="preserve"
   id="svg2"
   width="144.59801"
   height="144.59801"
   xmlns="http://www.w3.org/2000/svg"
   xmlns:svg="http://www.w3.org/2000/svg"><defs
   id="defs2" />

<g
   id="g1"
   transform="translate(23.577731,1.7705583e-4)"><path
     d="m 28.777763,101.63897 c -0.218,-7.974001 0.122,-15.426001 1.513,-22.806001 0.454,-2.381 1.052,-4.734 1.577,-7.109 0.396,-1.792 0.239,-2.02 -1.609,-2.045 -4.323,-0.053 -8.507,-0.808 -12.558,-2.324 -3.351,-1.251 -6.211,-3.139 -8.5969999,-5.864 -1.623,-1.859 -3.661,-3.347 -5.389,-5.12 -3.08200001,-3.168 -4.02200001,-6.987 -2.528,-11.121 2.46,-6.808 6.211,-12.869 11.2209999,-18.129 3.847,-4.041 8.095,-7.592 12.494,-11.021 4.956,-3.862 10.026,-7.5169999 15.573,-10.4559999 5.23,-2.774 10.741,-4.792 16.756,-4.984 2.86,-0.093 5.746,-0.293 8.578,-0.025 5.628,0.529 9.758,3.862 13.388,7.874 4.104,4.5309999 6.83,9.9159999 8.789,15.6159999 2.843,8.267 5.507,16.606 7.921,25.016 1.033,3.583 1.362,7.413 0.672,11.185 -0.676,3.711 -2.632,6.537 -6.265,7.838 -1.198,0.429 -2.6,0.293 -3.905,0.404 -0.997,0.083 -2.027,0 -2.985,0.232 -3.848,0.93 -7.62,2.271 -11.514,2.846 -3.376,0.494 -6.884,0.333 -10.316,0.146 -2.722,-0.146 -2.817,-0.132 -3.011,2.657 -0.751,10.777 1.455,21.125 4.599,31.310001 1.862,6.036 4.033,11.986 6.071,17.965 1.563,4.598 1.717,9.254 0.647,13.974 -0.34,1.474 -1.151,2.604 -2.618,3.062 -2.002,0.614 -4.012,1.287 -6.075,1.63 -4.151,0.694 -8.32,1.33 -12.511,1.674 -2.125,0.172 -4.302,-0.379 -6.462,-0.572 -2.371,-0.215 -4.084,-1.545 -5.3,-3.418 -3.697,-5.692 -6.093,-11.837 -6.933,-18.666 -0.832,-6.739 -1.537,-13.461 -1.223,-19.769 z"
     clip-rule="evenodd"
     fill="none"
     fill-rule="evenodd"
     stroke="#000000"
     stroke-miterlimit="10"
     id="path1" /><path
     d="m 28.777763,101.63897 c -0.22,-7.970001 0.12,-15.427001 1.514,-22.804001 0.451,-2.385 1.053,-4.741 1.579,-7.112 0.396,-1.788 0.237,-2.021 -1.61,-2.044 -4.323,-0.056 -8.509,-0.805 -12.561,-2.321 -3.35,-1.253 -6.211,-3.142 -8.5949999,-5.87 -1.623,-1.857 -3.662,-3.344 -5.39,-5.119 -3.08300001,-3.165 -4.02000001,-6.989 -2.527,-11.121 2.459,-6.808 6.211,-12.871 11.2229999,-18.131 3.846,-4.037 8.093,-7.589 12.492,-11.016 4.957,-3.862 10.028,-7.5179999 15.572,-10.4579999 5.23,-2.775 10.744,-4.792 16.758,-4.983 2.859,-0.091 5.744,-0.293 8.578,-0.026 5.626,0.53 9.758,3.86 13.389,7.874 4.102,4.5329999 6.829,9.9119999 8.788,15.6129999 2.841,8.271 5.504,16.612 7.921,25.017 1.032,3.588 1.359,7.417 0.672,11.188 -0.677,3.711 -2.632,6.535 -6.268,7.835 -1.196,0.428 -2.596,0.298 -3.903,0.406 -0.995,0.083 -2.025,0.001 -2.982,0.232 -3.846,0.93 -7.622,2.271 -11.516,2.845 -3.377,0.498 -6.885,0.334 -10.318,0.15 -2.722,-0.146 -2.816,-0.138 -3.011,2.651 -0.749,10.782 1.455,21.128 4.599,31.314001 1.864,6.038 4.036,11.981 6.073,17.964 1.565,4.596 1.716,9.255 0.645,13.971 -0.335,1.477 -1.148,2.604 -2.615,3.059 -2.003,0.621 -4.015,1.296 -6.075,1.639 -4.149,0.688 -8.321,1.329 -12.51,1.667 -2.125,0.171 -4.305,-0.376 -6.463,-0.569 -2.372,-0.212 -4.083,-1.546 -5.298,-3.418 -3.697,-5.694 -6.092,-11.841 -6.936,-18.671 -0.835,-6.736 -1.538,-13.45 -1.225,-19.762 z m 4.714,0.276 c -0.044,7.366 0.206,14.682 1.677,21.94 0.728,3.589 1.497,7.121 3.222,10.384 0.739,1.398 1.679,2.497 3.248,3.07 6.398,2.34 12.686,1.824 18.899,-0.644 2.315,-0.919 3.442,-2.697 3.498,-5.215 0.063,-2.844 -1.025,-5.309 -2.112,-7.862 -2.839,-6.672 -4.644,-13.683 -5.886,-20.806 -0.92,-5.275001 -1.678,-10.605001 -2.05,-15.942001 -0.363,-5.211 -0.278,-10.467 -0.126,-15.696 0.076,-2.638 -0.133,-3.262 -2.709,-3.39 -3.851,-0.191 -7.642,-1.268 -11.558,-0.639 -1.318,0.212 -2.402,0.43 -2.667,1.922 -0.959,5.406 -2.205,10.784 -2.771,16.232 -0.575,5.513 -0.472,11.095 -0.665,16.646001 z m -8.953,-66.905001 c 0.032,-2.782 -0.398,-5.367 -2.669,-7.291 -1.511,-1.28 -3.341,-1.502 -4.912,-0.317 -1.569,1.183 -3.147,2.429 -4.427,3.903 -2.8139999,3.243 -4.9579999,6.946 -6.7309999,10.857 -1.436,3.167 0.099,6.382 3.523,7.036 2.5979999,0.496 5.1939999,0.335 7.6659999,-0.842 5.656,-2.695 7.271,-7.637 7.55,-13.346 z m 49.57,-27.4919999 c -2.657,0.019 -4.531,1.62 -4.674,3.9679999 -0.084,1.381 0.084,2.802 0.326,4.173 1.029,5.834 4.088,10.246 9.45,12.888 0.909,0.448 2.111,0.714 3.085,0.54 2.536,-0.452 4.013,-2.876 3.209,-5.335 -0.566,-1.733 -1.536,-3.343 -2.402,-4.967 -1.469,-2.754 -2.916,-5.525 -4.533,-8.192 -1.052,-1.7369999 -2.592,-2.9809999 -4.461,-3.0749999 z m -16.724,53.4909999 c 0.12,0.712 0.173,1.287 0.317,1.837 0.682,2.598 2.106,2.989 4.129,1.217 2.847,-2.495 4.554,-5.807 6.399,-8.994 0.997,-1.722 0.283,-3.308 -1.404,-4.143 -1.366,-0.676 -2.692,-0.448 -3.795,0.396 -3.226,2.471 -5.117,5.754 -5.646,9.687 z m 19.261,-3.422 c -0.037,-1.804 -1.092,-3.636 -2.107,-3.796 -1.418,-0.223 -1.948,0.998 -2.593,1.891 -1.081,1.498 -1.981,3.132 -3.124,4.578 -1.339,1.693 -2.83,3.269 -4.304,4.851 -0.76,0.817 -1.362,1.816 -0.649,2.703 0.498,0.62 1.624,0.999 2.473,1.003 0.891,0.004 1.883,-0.412 2.66,-0.911 3.014,-1.937 5.234,-4.637 6.886,-7.784 0.46,-0.88 0.585,-1.935 0.758,-2.535 z m -21.552,-5.446 c -0.083,-0.021 -0.165,-0.041 -0.248,-0.062 0,-0.192 0.005,-0.384 -10e-4,-0.575 -0.058,-1.999 -0.959,-3.25 -2.556,-3.549 -1.513,-0.283 -2.823,0.638 -3.464,2.612 -0.591,1.82 -1.122,3.667 -1.541,5.534 -0.433,1.927 -0.255,3.804 0.926,5.503 1.29,1.854 2.554,1.934 3.941,0.166 0.312,-0.397 0.63,-0.845 0.761,-1.32 0.759,-2.761 1.462,-5.537 2.182,-8.309 z m -11.526,7.857 c -0.902,-3.748 -1.694,-7.209 -2.585,-10.646 -0.301,-1.163 -1.248,-1.802 -2.446,-1.771 -1.313,0.034 -2.055,0.912 -2.424,2.097 -0.839,2.688 -0.269,5.275 0.585,7.846 0.587,1.77 1.595,3.223 3.263,4.056 0.718,0.358 1.781,0.681 2.399,0.396 0.609,-0.281 0.856,-1.351 1.208,-1.978 z m -7.503,2.292 c -0.855,-1.154 -1.455,-2.313 -2.365,-3.122 -2.204,-1.958 -4.179,-4.042 -5.608,-6.664 -0.841,-1.543 -2.165,-1.957 -3.351,-1.451 -1.156,0.493 -1.718,1.745 -1.362,3.43 0.939,4.45 6.188,10.491 12.686,7.807 z m -12.323,4.32 c 1.702,-0.331 3.453,-0.648 5.191,-1.023 0.542,-0.117 1.049,-0.39 1.572,-0.591 -0.48,-0.417 -0.942,-0.858 -1.451,-1.236 -0.188,-0.139 -0.486,-0.137 -0.737,-0.18 -4.21,-0.716 -8.102,-2.231 -11.653,-4.617 -0.687,-0.462 -1.395,-0.931 -2.159,-1.223 -0.466,-0.178 -1.17,-0.202 -1.557,0.041 -0.281,0.176 -0.333,0.916 -0.275,1.378 0.061,0.483 0.316,0.971 0.588,1.392 2.442,3.783 6.182,5.328 10.481,6.059 z m 68.315,-19.131 c 0.018,-2.29 -1.51,-3.871 -3.776,-3.91 -2.18,-0.038 -4.196,1.792 -4.229,3.837 -0.032,2.021 1.988,3.923 4.154,3.913 2.281,-0.01 3.835,-1.559 3.851,-3.84 z m -41.907,-42.1709999 c -1.626,0.033 -3.313,1.745 -3.335,3.386 -0.024,1.8349999 1.596,3.4569999 3.429,3.4299999 1.836,-0.027 3.425,-1.706 3.335,-3.5239999 -0.08,-1.642 -1.832,-3.324 -3.429,-3.292 z m 21.089,62.7349999 c 0.08,0.179 0.161,0.359 0.241,0.538 2.095,-0.35 4.269,-0.542 6.083,-1.793 1.135,-0.782 2.185,-1.792 2.983,-2.907 0.352,-0.49 -0.018,-1.497 -0.059,-2.269 -0.613,0.167 -1.339,0.178 -1.821,0.527 -2.014,1.456 -3.962,3.002 -5.917,4.537 -0.532,0.418 -1.008,0.909 -1.51,1.367 z"
     clip-rule="evenodd"
     fill-rule="evenodd"
     id="path2" /></g>
</svg>
