<?xml version="1.0" encoding="UTF-8" standalone="no"?>
<svg
   version="1.1"
   id="svg40155"
   viewBox="0 0 676.60713 501.68462"
   height="141.58655mm"
   width="190.95357mm"
   sodipodi:docname="psychoactive.svg"
   inkscape:version="1.4.3 (0d15f75, 2025-12-25)"
   xmlns:inkscape="http://www.inkscape.org/namespaces/inkscape"
   xmlns:sodipodi="http://sodipodi.sourceforge.net/DTD/sodipodi-0.dtd"
   xmlns:xlink="http://www.w3.org/1999/xlink"
   xmlns="http://www.w3.org/2000/svg"
   xmlns:svg="http://www.w3.org/2000/svg"
   xmlns:rdf="http://www.w3.org/1999/02/22-rdf-syntax-ns#"
   xmlns:cc="http://creativecommons.org/ns#"
   xmlns:dc="http://purl.org/dc/elements/1.1/">
  <sodipodi:namedview
     id="namedview1"
     pagecolor="#ffffff"
     bordercolor="#000000"
     borderopacity="0.25"
     inkscape:showpageshadow="2"
     inkscape:pageopacity="0.0"
     inkscape:pagecheckerboard="0"
     inkscape:deskcolor="#d1d1d1"
     inkscape:document-units="mm"
     inkscape:zoom="0.3318938"
     inkscape:cx="174.7547"
     inkscape:cy="272.67759"
     inkscape:window-width="1440"
     inkscape:window-height="784"
     inkscape:window-x="0"
     inkscape:window-y="30"
     inkscape:window-maximized="0"
     inkscape:current-layer="layer1" />
  <defs
     id="defs40157">
    <linearGradient
       id="linearGradient13627">
      <stop
         id="stop13623"
         offset="0"
         style="stop-color:#7372ff;stop-opacity:1" />
      <stop
         style="stop-color:#61ffcb;stop-opacity:1"
         offset="0.29000187"
         id="stop13635" />
      <stop
         style="stop-color:#ffda45;stop-opacity:1"
         offset="0.55658615"
         id="stop13633" />
      <stop
         style="stop-color:#ff9853;stop-opacity:1"
         offset="0.79650491"
         id="stop13631" />
      <stop
         id="stop13625"
         offset="1"
         style="stop-color:#ff4b4b;stop-opacity:1" />
    </linearGradient>
    <clipPath
       id="clipPath3696"
       clipPathUnits="userSpaceOnUse">
      <path
         id="path3694"
         d="M 0,500 H 500 V 0 H 0 Z" />
    </clipPath>
    <linearGradient
       gradientUnits="userSpaceOnUse"
       y2="639.59998"
       x2="901.56116"
       y1="742.3515"
       x1="313.77863"
       id="linearGradient13629"
       xlink:href="#linearGradient13627" />
    <linearGradient
       gradientTransform="matrix(0.26458333,0,0,0.26458333,-46.678679,-140.93847)"
       y2="639.59998"
       x2="901.56116"
       y1="742.3515"
       x1="313.77863"
       gradientUnits="userSpaceOnUse"
       id="linearGradient13642"
       xlink:href="#linearGradient13627" />
    <clipPath
       id="clipPath13644"
       clipPathUnits="userSpaceOnUse">
      <rect
         style="opacity:0.5;fill:#0000ff;fill-opacity:1;stroke:none;stroke-width:3;stroke-linecap:round;stroke-linejoin:miter;stroke-miterlimit:4;stroke-dasharray:none;stroke-dashoffset:0;stroke-opacity:1;marker:none"
         id="rect13646"
         width="292.91071"
         height="126.86948"
         x="-42.666676"
         y="-29.820541" />
    </clipPath>
    <clipPath
       id="clipPath3696-7"
       clipPathUnits="userSpaceOnUse">
      <path
         id="path3694-2"
         d="M 0,500 H 500 V 0 H 0 Z" />
    </clipPath>
    <linearGradient
       gradientUnits="userSpaceOnUse"
       y2="639.59998"
       x2="901.56116"
       y1="742.3515"
       x1="313.77863"
       id="linearGradient40913"
       xlink:href="#linearGradient13627" />
    <linearGradient
       gradientTransform="matrix(0.26458333,0,0,0.26458333,-46.678679,-140.93847)"
       y2="639.59998"
       x2="901.56116"
       y1="742.3515"
       x1="313.77863"
       gradientUnits="userSpaceOnUse"
       id="linearGradient40915"
       xlink:href="#linearGradient13627" />
    <clipPath
       id="clipPath13644-8"
       clipPathUnits="userSpaceOnUse">
      <rect
         style="opacity:0.5;fill:#0000ff;fill-opacity:1;stroke:none;stroke-width:3;stroke-linecap:round;stroke-linejoin:miter;stroke-miterlimit:4;stroke-dasharray:none;stroke-dashoffset:0;stroke-opacity:1;marker:none"
         id="rect13646-1"
         width="292.91071"
         height="126.86948"
         x="-42.666676"
         y="-29.820541" />
    </clipPath>
    <clipPath
       clipPathUnits="userSpaceOnUse"
       id="clipPath3696-6">
      <path
         d="M 0,500 H 500 V 0 H 0 Z"
         id="path3694-27" />
    </clipPath>
    <linearGradient
       xlink:href="#linearGradient13627"
       id="linearGradient42634"
       x1="313.77863"
       y1="742.3515"
       x2="901.56116"
       y2="639.59998"
       gradientUnits="userSpaceOnUse" />
    <linearGradient
       xlink:href="#linearGradient13627"
       id="linearGradient13642-6"
       gradientUnits="userSpaceOnUse"
       x1="313.77863"
       y1="742.3515"
       x2="901.56116"
       y2="639.59998"
       gradientTransform="matrix(0.26458333,0,0,0.26458333,-67.382513,-173.84995)" />
    <clipPath
       clipPathUnits="userSpaceOnUse"
       id="clipPath13644-6">
      <rect
         y="-29.820541"
         x="-42.666676"
         height="126.86948"
         width="292.91071"
         id="rect13646-0"
         style="opacity:0.5;fill:#0000ff;fill-opacity:1;stroke:none;stroke-width:3;stroke-linecap:round;stroke-linejoin:miter;stroke-miterlimit:4;stroke-dasharray:none;stroke-dashoffset:0;stroke-opacity:1;marker:none" />
    </clipPath>
    <clipPath
       clipPathUnits="userSpaceOnUse"
       id="clipPath3696-9">
      <path
         d="M 0,500 H 500 V 0 H 0 Z"
         id="path3694-6" />
    </clipPath>
    <linearGradient
       xlink:href="#linearGradient13627"
       id="linearGradient43029"
       x1="313.77863"
       y1="742.3515"
       x2="901.56116"
       y2="639.59998"
       gradientUnits="userSpaceOnUse" />
    <linearGradient
       xlink:href="#linearGradient13627"
       id="linearGradient13642-7"
       gradientUnits="userSpaceOnUse"
       x1="313.77863"
       y1="742.3515"
       x2="901.56116"
       y2="639.59998"
       gradientTransform="matrix(0.26458333,0,0,0.26458333,-67.382513,-173.84995)" />
    <clipPath
       clipPathUnits="userSpaceOnUse"
       id="clipPath13644-9">
      <rect
         y="-29.820541"
         x="-42.666676"
         height="126.86948"
         width="292.91071"
         id="rect13646-7"
         style="opacity:0.5;fill:#0000ff;fill-opacity:1;stroke:none;stroke-width:3;stroke-linecap:round;stroke-linejoin:miter;stroke-miterlimit:4;stroke-dasharray:none;stroke-dashoffset:0;stroke-opacity:1;marker:none" />
    </clipPath>
    <linearGradient
       gradientTransform="matrix(0.93749999,0,0,0.93749999,-971.58238,15.327186)"
       y2="639.59998"
       x2="901.56116"
       y1="742.3515"
       x1="313.77863"
       gradientUnits="userSpaceOnUse"
       id="linearGradient13642-3"
       xlink:href="#linearGradient13627" />
    <linearGradient
       y2="639.59998"
       x2="901.56116"
       y1="742.3515"
       x1="313.77863"
       gradientTransform="matrix(0.26458333,0,0,0.26458333,-46.678679,-140.93847)"
       gradientUnits="userSpaceOnUse"
       id="linearGradient43182"
       xlink:href="#linearGradient13627" />
  </defs>
  <metadata
     id="metadata40160">
    <rdf:RDF>
      <cc:Work
         rdf:about="">
        <dc:format>image/svg+xml</dc:format>
        <dc:type
           rdf:resource="http://purl.org/dc/dcmitype/StillImage" />
      </cc:Work>
    </rdf:RDF>
  </metadata>
  <g
     transform="translate(654.01785,-516.87946)"
     id="layer1">
    <g
       id="g837"
       transform="translate(-599.73214,544.75276)">
      <path
         id="path785"
         style="fill:#fafada;fill-rule:evenodd;stroke:#000000;stroke-width:10;stroke-linejoin:round"
         d="m 215,202.5 c 0,0 11.25,126.25 5,175 -6.25,48.75 -10,66.25 3.75,83.75 28.75,7.5 121.25,17.5 142.5,-15 C 365,403.75 315,345 306.25,297.5 297.5,250 335.66,203.9 278.16,192.65 220.66,181.4 213.75,205 215,202.5 Z" />
      <path
         id="path786"
         style="fill:#f0f0df;fill-rule:evenodd;stroke:#000000;stroke-width:10;stroke-linejoin:round"
         d="m 215,211.25 c 0,0 3.75,51.25 -11.25,90 26.25,18.75 105,-3.75 123.75,-3.75 -25,-38.75 -15,-73.75 -15,-81.25 0,-7.5 -100,-7.5 -97.5,-5 z" />
      <path
         id="path784"
         style="fill:#fa0000;fill-rule:evenodd;stroke:#000000;stroke-width:10;stroke-linejoin:round"
         d="M 20,271.25 C 31.25,182.5 161.25,37.5 262.5,33.75 378.75,16.25 481.25,145 493.75,191.25 462.5,210 311.25,221.25 273.75,237.5 236.25,261.25 41.25,273.75 20,271.25 Z" />
      <path
         id="path787"
         style="fill:#faffff;fill-rule:evenodd"
         d="m 255,118.75 c -55,22.5 -42.5,107.5 13.75,98.75 91.25,-16.25 25,-108.75 -13.75,-98.75 z" />
      <path
         id="path788"
         style="fill:#faffff;fill-rule:evenodd"
         d="m 32.272,254.45 c -6.25,-10 26.25,-92.5 61.25,-77.5 43.748,21.25 -21.25,108.75 -61.25,77.5 z" />
      <path
         id="path789"
         style="fill:#faffff;fill-rule:evenodd"
         d="m 248.36,38.522 c 80,-11.25 26.25,27.5 -1.25,35 -23.75,5 -105,-7.5 1.25,-35 z" />
      <path
         id="path790"
         style="fill:#faffff;fill-rule:evenodd"
         d="m 142.5,102.5 c 31.25,-11.25 87.5,51.25 20,76.25 -68.75,8.75 -55,-61.25 -20,-76.25 z" />
      <path
         id="path791"
         style="fill:#faffff;fill-rule:evenodd"
         d="m 430.93,107.66 c -32.5,-26.251 -78.75,-18.751 -67.5,38.75 26.25,53.75 96.25,7.5 67.5,-38.75 z" />
      <path
         id="path792"
         style="fill:#faffff;fill-rule:evenodd"
         d="m 327.18,42.817 c -30,16.25 5,75.003 56.25,27.5 -10,-11.25 -47.5,-25 -56.25,-27.5 z" />
      <path
         id="path793"
         style="fill:#faffff;fill-rule:evenodd"
         d="m 488.27,187.89 c -5,-12.5 -17.65,-56.8 -45.15,-20.55 -29.62,56.32 45.15,20.55 45.15,20.55 z" />
      <path
         id="path1193"
         style="fill:#e6e4df;fill-rule:evenodd"
         d="m 296.12,307.44 c 6.47,9.71 56.63,106.8 58.25,124.6 1.62,17.8 -16.18,24.27 -25.89,21.03 -9.71,-3.23 -43.69,-134.3 -32.36,-145.63 z" />
      <path
         id="path1194"
         style="fill:#ffffff;fill-opacity:0.43333;fill-rule:evenodd"
         d="m 289.64,37.217 c -80.9,-6.473 -216.82,79.283 -260.51,223.3 12.941,4.85 4.851,12.94 45.304,0 53.396,-190.94 174.76,-197.41 215.21,-223.3 z" />
    </g>
    <g
       style="opacity:0.29;fill:#ff00ff;stroke:none"
       transform="translate(-648.30357,484.75276)"
       id="g43104">
      <path
         d="m 215,202.5 c 0,0 11.25,126.25 5,175 -6.25,48.75 -10,66.25 3.75,83.75 28.75,7.5 121.25,17.5 142.5,-15 C 365,403.75 315,345 306.25,297.5 297.5,250 335.66,203.9 278.16,192.65 220.66,181.4 213.75,205 215,202.5 Z"
         style="fill:#ff00ff;fill-rule:evenodd;stroke:none;stroke-width:10;stroke-linejoin:round"
         id="path43106" />
      <path
         d="m 215,211.25 c 0,0 3.75,51.25 -11.25,90 26.25,18.75 105,-3.75 123.75,-3.75 -25,-38.75 -15,-73.75 -15,-81.25 0,-7.5 -100,-7.5 -97.5,-5 z"
         style="fill:#ff00ff;fill-rule:evenodd;stroke:none;stroke-width:10;stroke-linejoin:round"
         id="path43108" />
      <path
         d="M 20,271.25 C 31.25,182.5 161.25,37.5 262.5,33.75 378.75,16.25 481.25,145 493.75,191.25 462.5,210 311.25,221.25 273.75,237.5 236.25,261.25 41.25,273.75 20,271.25 Z"
         style="fill:#ff00ff;fill-rule:evenodd;stroke:none;stroke-width:10;stroke-linejoin:round"
         id="path43110" />
      <path
         d="m 255,118.75 c -55,22.5 -42.5,107.5 13.75,98.75 91.25,-16.25 25,-108.75 -13.75,-98.75 z"
         style="fill:#ff00ff;fill-rule:evenodd;stroke:none"
         id="path43112" />
      <path
         d="m 32.272,254.45 c -6.25,-10 26.25,-92.5 61.25,-77.5 43.748,21.25 -21.25,108.75 -61.25,77.5 z"
         style="fill:#ff00ff;fill-rule:evenodd;stroke:none"
         id="path43114" />
      <path
         d="m 248.36,38.522 c 80,-11.25 26.25,27.5 -1.25,35 -23.75,5 -105,-7.5 1.25,-35 z"
         style="fill:#ff00ff;fill-rule:evenodd;stroke:none"
         id="path43116" />
      <path
         d="m 142.5,102.5 c 31.25,-11.25 87.5,51.25 20,76.25 -68.75,8.75 -55,-61.25 -20,-76.25 z"
         style="fill:#ff00ff;fill-rule:evenodd;stroke:none"
         id="path43118" />
      <path
         d="m 430.93,107.66 c -32.5,-26.251 -78.75,-18.751 -67.5,38.75 26.25,53.75 96.25,7.5 67.5,-38.75 z"
         style="fill:#ff00ff;fill-rule:evenodd;stroke:none"
         id="path43120" />
      <path
         d="m 327.18,42.817 c -30,16.25 5,75.003 56.25,27.5 -10,-11.25 -47.5,-25 -56.25,-27.5 z"
         style="fill:#ff00ff;fill-rule:evenodd;stroke:none"
         id="path43122" />
      <path
         d="m 488.27,187.89 c -5,-12.5 -17.65,-56.8 -45.15,-20.55 -29.62,56.32 45.15,20.55 45.15,20.55 z"
         style="fill:#ff00ff;fill-rule:evenodd;stroke:none"
         id="path43124" />
      <path
         d="m 296.12,307.44 c 6.47,9.71 56.63,106.8 58.25,124.6 1.62,17.8 -16.18,24.27 -25.89,21.03 -9.71,-3.23 -43.69,-134.3 -32.36,-145.63 z"
         style="fill:#ff00ff;fill-rule:evenodd;stroke:none"
         id="path43126" />
      <path
         d="m 289.64,37.217 c -80.9,-6.473 -216.82,79.283 -260.51,223.3 12.941,4.85 4.851,12.94 45.304,0 53.396,-190.94 174.76,-197.41 215.21,-223.3 z"
         style="fill:#ff00ff;fill-opacity:0.43333;fill-rule:evenodd;stroke:none"
         id="path43128" />
    </g>
    <g
       id="g43130"
       transform="translate(-674.01785,533.32419)"
       style="opacity:0.263;fill:#00ff00;stroke:none">
      <path
         id="path43132"
         style="fill:#00ff00;fill-rule:evenodd;stroke:none;stroke-width:10;stroke-linejoin:round"
         d="m 215,202.5 c 0,0 11.25,126.25 5,175 -6.25,48.75 -10,66.25 3.75,83.75 28.75,7.5 121.25,17.5 142.5,-15 C 365,403.75 315,345 306.25,297.5 297.5,250 335.66,203.9 278.16,192.65 220.66,181.4 213.75,205 215,202.5 Z" />
      <path
         id="path43134"
         style="fill:#00ff00;fill-rule:evenodd;stroke:none;stroke-width:10;stroke-linejoin:round"
         d="m 215,211.25 c 0,0 3.75,51.25 -11.25,90 26.25,18.75 105,-3.75 123.75,-3.75 -25,-38.75 -15,-73.75 -15,-81.25 0,-7.5 -100,-7.5 -97.5,-5 z" />
      <path
         id="path43136"
         style="fill:#00ff00;fill-rule:evenodd;stroke:none;stroke-width:10;stroke-linejoin:round"
         d="M 20,271.25 C 31.25,182.5 161.25,37.5 262.5,33.75 378.75,16.25 481.25,145 493.75,191.25 462.5,210 311.25,221.25 273.75,237.5 236.25,261.25 41.25,273.75 20,271.25 Z" />
      <path
         id="path43138"
         style="fill:#00ff00;fill-rule:evenodd;stroke:none"
         d="m 255,118.75 c -55,22.5 -42.5,107.5 13.75,98.75 91.25,-16.25 25,-108.75 -13.75,-98.75 z" />
      <path
         id="path43140"
         style="fill:#00ff00;fill-rule:evenodd;stroke:none"
         d="m 32.272,254.45 c -6.25,-10 26.25,-92.5 61.25,-77.5 43.748,21.25 -21.25,108.75 -61.25,77.5 z" />
      <path
         id="path43142"
         style="fill:#00ff00;fill-rule:evenodd;stroke:none"
         d="m 248.36,38.522 c 80,-11.25 26.25,27.5 -1.25,35 -23.75,5 -105,-7.5 1.25,-35 z" />
      <path
         id="path43144"
         style="fill:#00ff00;fill-rule:evenodd;stroke:none"
         d="m 142.5,102.5 c 31.25,-11.25 87.5,51.25 20,76.25 -68.75,8.75 -55,-61.25 -20,-76.25 z" />
      <path
         id="path43146"
         style="fill:#00ff00;fill-rule:evenodd;stroke:none"
         d="m 430.93,107.66 c -32.5,-26.251 -78.75,-18.751 -67.5,38.75 26.25,53.75 96.25,7.5 67.5,-38.75 z" />
      <path
         id="path43148"
         style="fill:#00ff00;fill-rule:evenodd;stroke:none"
         d="m 327.18,42.817 c -30,16.25 5,75.003 56.25,27.5 -10,-11.25 -47.5,-25 -56.25,-27.5 z" />
      <path
         id="path43150"
         style="fill:#00ff00;fill-rule:evenodd;stroke:none"
         d="m 488.27,187.89 c -5,-12.5 -17.65,-56.8 -45.15,-20.55 -29.62,56.32 45.15,20.55 45.15,20.55 z" />
      <path
         id="path43152"
         style="fill:#00ff00;fill-rule:evenodd;stroke:none"
         d="m 296.12,307.44 c 6.47,9.71 56.63,106.8 58.25,124.6 1.62,17.8 -16.18,24.27 -25.89,21.03 -9.71,-3.23 -43.69,-134.3 -32.36,-145.63 z" />
      <path
         id="path43154"
         style="fill:#00ff00;fill-opacity:0.43333;fill-rule:evenodd;stroke:none"
         d="m 289.64,37.217 c -80.9,-6.473 -216.82,79.283 -260.51,223.3 12.941,4.85 4.851,12.94 45.304,0 53.396,-190.94 174.76,-197.41 215.21,-223.3 z" />
    </g>
    <g
       style="opacity:0.263;fill:#ffcc00;stroke:none"
       transform="translate(-471.16071,519.03848)"
       id="g43156">
      <path
         d="m 215,202.5 c 0,0 11.25,126.25 5,175 -6.25,48.75 -10,66.25 3.75,83.75 28.75,7.5 121.25,17.5 142.5,-15 C 365,403.75 315,345 306.25,297.5 297.5,250 335.66,203.9 278.16,192.65 220.66,181.4 213.75,205 215,202.5 Z"
         style="fill:#ffcc00;fill-rule:evenodd;stroke:none;stroke-width:10;stroke-linejoin:round"
         id="path43158" />
      <path
         d="m 215,211.25 c 0,0 3.75,51.25 -11.25,90 26.25,18.75 105,-3.75 123.75,-3.75 -25,-38.75 -15,-73.75 -15,-81.25 0,-7.5 -100,-7.5 -97.5,-5 z"
         style="fill:#ffcc00;fill-rule:evenodd;stroke:none;stroke-width:10;stroke-linejoin:round"
         id="path43160" />
      <path
         d="M 20,271.25 C 31.25,182.5 161.25,37.5 262.5,33.75 378.75,16.25 481.25,145 493.75,191.25 462.5,210 311.25,221.25 273.75,237.5 236.25,261.25 41.25,273.75 20,271.25 Z"
         style="fill:#ffcc00;fill-rule:evenodd;stroke:none;stroke-width:10;stroke-linejoin:round"
         id="path43162" />
      <path
         d="m 255,118.75 c -55,22.5 -42.5,107.5 13.75,98.75 91.25,-16.25 25,-108.75 -13.75,-98.75 z"
         style="fill:#ffcc00;fill-rule:evenodd;stroke:none"
         id="path43164" />
      <path
         d="m 32.272,254.45 c -6.25,-10 26.25,-92.5 61.25,-77.5 43.748,21.25 -21.25,108.75 -61.25,77.5 z"
         style="fill:#ffcc00;fill-rule:evenodd;stroke:none"
         id="path43166" />
      <path
         d="m 248.36,38.522 c 80,-11.25 26.25,27.5 -1.25,35 -23.75,5 -105,-7.5 1.25,-35 z"
         style="fill:#ffcc00;fill-rule:evenodd;stroke:none"
         id="path43168" />
      <path
         d="m 142.5,102.5 c 31.25,-11.25 87.5,51.25 20,76.25 -68.75,8.75 -55,-61.25 -20,-76.25 z"
         style="fill:#ffcc00;fill-rule:evenodd;stroke:none"
         id="path43170" />
      <path
         d="m 430.93,107.66 c -32.5,-26.251 -78.75,-18.751 -67.5,38.75 26.25,53.75 96.25,7.5 67.5,-38.75 z"
         style="fill:#ffcc00;fill-rule:evenodd;stroke:none"
         id="path43172" />
      <path
         d="m 327.18,42.817 c -30,16.25 5,75.003 56.25,27.5 -10,-11.25 -47.5,-25 -56.25,-27.5 z"
         style="fill:#ffcc00;fill-rule:evenodd;stroke:none"
         id="path43174" />
      <path
         d="m 488.27,187.89 c -5,-12.5 -17.65,-56.8 -45.15,-20.55 -29.62,56.32 45.15,20.55 45.15,20.55 z"
         style="fill:#ffcc00;fill-rule:evenodd;stroke:none"
         id="path43176" />
      <path
         d="m 296.12,307.44 c 6.47,9.71 56.63,106.8 58.25,124.6 1.62,17.8 -16.18,24.27 -25.89,21.03 -9.71,-3.23 -43.69,-134.3 -32.36,-145.63 z"
         style="fill:#ffcc00;fill-rule:evenodd;stroke:none"
         id="path43178" />
      <path
         d="m 289.64,37.217 c -80.9,-6.473 -216.82,79.283 -260.51,223.3 12.941,4.85 4.851,12.94 45.304,0 53.396,-190.94 174.76,-197.41 215.21,-223.3 z"
         style="fill:#ffcc00;fill-opacity:0.43333;fill-rule:evenodd;stroke:none"
         id="path43180" />
    </g>
  </g>
</svg>
